<?xml version="1.0" encoding="UTF-8"?>
<svg xmlns="http://www.w3.org/2000/svg" width="40" height="40" fill="none">
  <path d="M32.635 3.75h-3.16v3.161c0 .632-.527 1.054-1.054 1.054a1.056 1.056 0 01-1.054-1.054V3.75H10.508v3.161c0 .632-.527 1.054-1.054 1.054A1.056 1.056 0 018.401 6.91V3.75H5.24c-1.581 0-2.74 1.37-2.74 3.161v3.793h33.718V6.911c0-1.791-1.897-3.161-3.583-3.161zM2.5 12.917v19.282c0 1.897 1.16 3.162 2.845 3.162H32.74c1.686 0 3.582-1.37 3.582-3.161V12.916H2.5zm9.378 17.702h-2.53a.831.831 0 01-.842-.843v-2.634a.83.83 0 01.843-.843h2.634a.83.83 0 01.843.843v2.634c-.105.527-.421.843-.948.843zm0-9.483h-2.53a.831.831 0 01-.842-.843v-2.634a.83.83 0 01.843-.843h2.634a.83.83 0 01.843.843v2.634c-.105.527-.421.843-.948.843zm8.43 9.483h-2.635a.831.831 0 01-.843-.843v-2.634a.83.83 0 01.843-.843h2.634a.83.83 0 01.843.843v2.634c0 .527-.316.843-.843.843zm0-9.483h-2.635a.831.831 0 01-.843-.843v-2.634a.83.83 0 01.843-.843h2.634a.83.83 0 01.843.843v2.634c0 .527-.316.843-.843.843zm8.429 9.483h-2.634a.831.831 0 01-.843-.843v-2.634c0-.422.316-.843.842-.843h2.635c.421 0 .843.316.843.843v2.634c0 .527-.316.843-.843.843zm0-9.483h-2.634a.831.831 0 01-.843-.843v-2.634c0-.422.316-.843.842-.843h2.635c.421 0 .843.316.843.843v2.634c0 .527-.316.843-.843.843z" fill="#fff"></path>
</svg>
