<?xml version="1.0" encoding="UTF-8"?>
<svg xmlns="http://www.w3.org/2000/svg" width="40" height="40" fill="none">
  <g clip-path="url(#clip0_107_14944)" fill="#fff">
    <path d="M20 8.672C13.754 8.672 8.672 13.754 8.672 20c0 6.246 5.082 11.328 11.328 11.328 6.246 0 11.328-5.082 11.328-11.328 0-6.246-5.082-11.328-11.328-11.328zm7.925 11.883h-2.343v-2.17L20 23.966l-2.5-2.5-4.171 4.172-1.658-1.658 5.829-5.828 2.5 2.5 3.924-3.925h-2.17v-2.343h6.171v6.171z"></path>
    <path d="M40 22.5v-5h-2.678a17.384 17.384 0 00-1.069-3.997l2.318-1.338-2.5-4.33-2.32 1.34a17.598 17.598 0 00-2.925-2.925l1.34-2.32-4.331-2.5-1.338 2.317A17.378 17.378 0 0022.5 2.679V0h-5v2.679a17.346 17.346 0 00-3.997 1.068l-1.338-2.318-4.33 2.5 1.34 2.32A17.6 17.6 0 006.25 9.175l-2.32-1.34-2.5 4.331 2.317 1.338A17.378 17.378 0 002.679 17.5H0v5h2.679a17.346 17.346 0 001.068 3.997l-2.318 1.338 2.5 4.33 2.32-1.34a17.598 17.598 0 002.925 2.925l-1.34 2.32 4.331 2.5 1.338-2.317c1.266.507 2.605.87 3.997 1.069V40h5v-2.678c1.392-.2 2.731-.562 3.997-1.069l1.338 2.318 4.33-2.5-1.34-2.32a17.595 17.595 0 002.925-2.925l2.32 1.34 2.5-4.331-2.317-1.338a17.384 17.384 0 001.069-3.997H40zM20 33.672c-7.539 0-13.672-6.133-13.672-13.672 0-7.539 6.133-13.672 13.672-13.672 7.539 0 13.672 6.133 13.672 13.672 0 7.539-6.133 13.672-13.672 13.672z"></path>
  </g>
  <defs>
    <clipPath id="clip0_107_14944">
      <path fill="#fff" d="M0 0h40v40H0z"></path>
    </clipPath>
  </defs>
</svg>
