<?xml version="1.0" encoding="UTF-8"?>
<svg xmlns="http://www.w3.org/2000/svg" width="40" height="40" fill="none">
  <path d="M34.164 4.527h-1.17v28.735a3.467 3.467 0 01-3.462 3.462H8.258v1.066c0 1.22.99 2.21 2.21 2.21H34.16c1.22 0 2.21-.99 2.21-2.21V6.737c0-1.22-.986-2.21-2.206-2.21z" fill="#fff"></path>
  <path d="M17.68 35.472h11.847c1.22 0 2.21-.99 2.21-2.21V2.21c0-1.22-.99-2.21-2.21-2.21H13.741v.731c.009.075.013.155.013.234v6.053a3.114 3.114 0 01-3.112 3.112H4.59a2.94 2.94 0 01-.193-.009H3.63v23.141c0 1.22.99 2.21 2.21 2.21h11.84zm.448-7.51h-7.724a1.045 1.045 0 010-2.089h7.728a1.045 1.045 0 11-.004 2.089zm7.727-5.33h-15.45a1.045 1.045 0 010-2.089h15.45a1.045 1.045 0 010 2.089zm-15.45-7.749h15.45a1.045 1.045 0 010 2.089h-15.45a1.045 1.045 0 010-2.089z" fill="#fff"></path>
  <path d="M4.59 8.878h6.069a1.854 1.854 0 001.838-1.838V.967A.93.93 0 0010.91.31L3.93 7.29c-.585.585-.171 1.587.66 1.587z" fill="#fff"></path>
</svg>
